<?xml version="1.0" encoding="UTF-8"?><svg id="logo" xmlns="http://www.w3.org/2000/svg" viewBox="0 0 1084.9 250"><defs><style>.cls-1{fill:none;}.cls-2{fill-rule:evenodd;}</style></defs><rect class="cls-1" x=".16" width="979.84" height="250"/><path d="M115.14,219.89h-21v-87.3c.028-21.221,17.239-38.41,38.46-38.41h7v21h-7c-9.634.011-17.443,7.816-17.46,17.45v87.26Z"/><path d="M83,181.48h-20.93v-53.08c.044-36.62,29.72-66.296,66.34-66.34h26.59v20.94h-26.59c-25.068.017-45.388,20.332-45.41,45.4v53.08Z"/><path d="M50.9,143.07h-20.9v-18.86c.061-52.039,42.231-94.209,94.27-94.27h46.09v21h-46.14c-40.456.044-73.248,32.814-73.32,73.27v18.86Z"/><path class="cls-2" d="M828.47,121.729c1.824-1.704,3.11-3.904,3.7-6.33.835-3.177,1.222-6.456,1.15-9.74v-19.77c.066-3.438-.699-6.841-2.23-9.92-1.552-2.989-3.872-5.512-6.72-7.31-3.001-1.947-6.307-3.377-9.78-4.23-3.964-.958-8.032-1.421-12.11-1.38h-100v120l.01,1.62h21v-49.11h74.2c4.86.007,8.45.783,10.77,2.33,2.128,1.429,3.335,3.882,3.17,6.44v40.34h21.69v-37.67c.05-3.28-.337-6.552-1.15-9.73-.648-2.574-1.872-4.968-3.58-7-1.708-1.914-3.764-3.486-6.06-4.63-.37-.2-.76-.38-1.15-.57l.88-.22c2.28-.555,4.404-1.622,6.21-3.12ZM811.63,108.639c.162,2.552-1.046,4.997-3.17,6.42-2.31,1.54-5.91,2.31-10.77,2.31h-74.2v-37.15h74.2v-.01c4.86,0,8.45.773,10.77,2.32,2.124,1.432,3.331,3.883,3.17,6.44v19.67Z"/><path class="cls-2" d="M941.636,130.918v22.92c-.012,1.718.328,3.419,1,5,.663,1.524,1.645,2.888,2.88,4,1.271,1.178,2.768,2.086,4.4,2.67,1.796.625,3.688.933,5.59.91h91.47v18.2h-95.69c-4.001.036-7.974-.666-11.72-2.07h0c-3.672-1.4-7.037-3.499-9.91-6.18h0c-6-5.56-9-12.23-9-20.08v-64.92c-.032-3.757.742-7.477,2.27-10.91,1.611-3.482,3.91-6.601,6.76-9.17,2.869-2.671,6.223-4.769,9.88-6.18h0c3.747-1.401,7.72-2.099,11.72-2.06h95.65v18.19h-91.45c-1.901-.026-3.793.279-5.59.9-1.632.584-3.129,1.492-4.4,2.67-1.234,1.113-2.216,2.477-2.88,4-.672,1.581-1.012,3.282-1,5v18.91l.02,18.2Z"/><path class="cls-2" d="M672.857,130.039c-1.26-2.419-2.978-4.569-5.06-6.33-1.971-1.735-4.223-3.122-6.66-4.1,1.082-.399,2.134-.874,3.15-1.42.901-.479,1.746-1.055,2.52-1.72.74-.641,1.383-1.385,1.91-2.21.547-.864.997-1.786,1.34-2.75.32-.93.59-1.81.78-2.62.191-.762.325-1.538.4-2.32.05-.6.14-1.41.14-2.3v-18.44c.067-3.429-.691-6.825-2.21-9.9-1.531-2.962-3.814-5.47-6.62-7.27-2.992-1.95-6.292-3.38-9.76-4.23-3.961-.957-8.025-1.421-12.1-1.38h-96.92v120l.03,1.63h100c4.079.043,8.147-.424,12.11-1.39,3.473-.85,6.779-2.277,9.78-4.22,2.831-1.771,5.14-4.263,6.69-7.22,1.538-3.077,2.303-6.481,2.23-9.92v-24.53c.006-2.557-.593-5.079-1.75-7.36ZM564.777,81.049h71.11c4.847.007,8.423.823,10.73,2.45,2.14,1.507,3.21,3.81,3.21,6.91v13.89c.156,2.526-1.049,4.943-3.16,6.34-2.327,1.527-5.92,2.29-10.78,2.29h-71.11v-31.88ZM652.907,157.969c.166,2.55-1.038,4.996-3.16,6.42-2.32,1.54-5.92,2.31-10.77,2.31h-74.2v-36.05h74.2c4.85,0,8.45.77,10.77,2.31,2.122,1.424,3.326,3.87,3.16,6.42v18.59Z"/><polygon class="cls-2" points="868.229 63.047 887.519 63.047 887.519 184.627 866.619 184.627 866.619 63.057 868.229 63.047"/><path class="cls-2" d="M258.24,65.099h0c3.76-1.402,7.747-2.097,11.76-2.05h95.65v18.19h-91.49c-1.901-.026-3.793.279-5.59.9-1.631.586-3.127,1.494-4.4,2.67-1.231,1.115-2.213,2.479-2.88,4-.672,1.581-1.012,3.282-1,5v18.91h87.52v18.2h-87.48v53.7h-21v-93.25c-.033-3.758.745-7.48,2.28-10.91,1.607-3.481,3.903-6.601,6.75-9.17,2.875-2.673,6.236-4.771,9.9-6.18l-.02-.01Z"/><path d="M501.536,184.682l-22.156-37.732h-85.993l-22.157,37.732h-23.599l64.296-110.419c4.03-6.919,11.396-11.216,19.222-11.216h10.468c7.827,0,15.192,4.298,19.223,11.216l64.294,110.419h-23.599ZM436.382,84.062c-3.925,0-7.623,2.161-9.649,5.64l-21.107,36.231h61.513l-21.108-36.231c-2.026-3.478-5.724-5.64-9.649-5.64Z"/></svg>